<svg xmlns="http://www.w3.org/2000/svg" viewBox="42 3 216 216" role="img" aria-label="Kimo">
  <rect x="42" y="3" width="216" height="216" rx="48" fill="#FFF0E7"/>
  <path d="M112 72C100 38 84 24 68 30 52 36 50 62 62 82 78 92 100 86 112 72Z" fill="#B87A45"/>
  <path d="M92 60C86 44 80 36 72 38 64 40 60 52 65 64 73 70 86 68 92 60Z" fill="#E9A876"/>
  <path d="M188 72C200 38 216 24 232 30 248 36 250 62 238 82 222 92 200 86 188 72Z" fill="#B87A45"/>
  <path d="M208 60C214 44 220 36 228 38 236 40 240 52 235 64 227 70 214 68 208 60Z" fill="#F5DCBB"/>
  <path d="M150 40C112 40 84 56 72 82 63 101 62 118 62 132 62 168 100 198 150 198 200 198 238 168 238 132 238 118 237 101 228 82 216 56 188 40 150 40Z" fill="#C98A4B"/>
  <path d="M150 116C176 116 194 130 194 148 194 168 174 180 150 180 126 180 106 168 106 148 106 130 124 116 150 116Z" fill="#F5DCBB"/>
  <ellipse cx="116" cy="108" rx="11.5" ry="13" fill="#2A1F16"/><ellipse cx="120" cy="103" rx="4" ry="3.4" fill="#FFFFFF"/>
  <ellipse cx="184" cy="108" rx="11.5" ry="13" fill="#2A1F16"/><ellipse cx="188" cy="103" rx="4" ry="3.4" fill="#FFFFFF"/>
  <path d="M150 154v7M150 161c-7.5 0-12-4-12-8.5M150 161c7.5 0 12-4 12-8.5" stroke="#2A1F16" stroke-width="3.8" fill="none" stroke-linecap="round"/>
  <path d="M150 130C159 130 165 134 165 140 165 146 158 150 150 150 142 150 135 146 135 140 135 134 141 130 150 130Z" fill="#2A1F16"/>
</svg>
